# xmcd CD database file
#
# Track frame offsets:
#	150
#	22313
#	28817
#	44430
#	51666
#	72499
#	74785
#	84525
#	101807
#	113572
#	133280
#	160508
#	181274
#	205198
#	220527
#	247440
#	290559
#
# Disc length: 4077 seconds
#
# Revision: 0
# Processed by: cddbd v1.5.1PL0 Copyright (c) Steve Scherf et al.
# Submitted via: CDex 1.51
#
DISCID=150feb11
DTITLE=Thilo Wolf Jazz Quartett - Classic Sax Accross Jazz
DYEAR=1900
DGENRE=Jazz
TTITLE0=Encore
TTITLE1=Promenade (1)
TTITLE2=Gnomus
TTITLE3=Promenade (2)
TTITLE4=Das alte Schloss
TTITLE5=Promenade (3)
TTITLE6=Die Tuilerien
TTITLE7=Die Hütte der Baba Yaga
TTITLE8=Das große Tor von Kiew
TTITLE9=The Flintstones
TTITLE10=The Prince Valiant Theme
TTITLE11=Spy Cats
TTITLE12=Turn Spring Into Winter
TTITLE13=Courante And Springdance
TTITLE14=Jazz-Variationen über das Thema von 'Bolero'
TTITLE15=On The Wings Of Hope
TTITLE16=The Horn's Boogie
EXTD=
EXTT0=
EXTT1=
EXTT2=
EXTT3=
EXTT4=
EXTT5=
EXTT6=
EXTT7=
EXTT8=
EXTT9=
EXTT10=
EXTT11=
EXTT12=
EXTT13=
EXTT14=
EXTT15=
EXTT16=
PLAYORDER=
